<svg id="callia-logo" width="100" height="28" xmlns="http://www.w3.org/2000/svg" viewBox="13.849997520446777 133.74000549316406 260.2999963760376 76.80000305175781" style="enable-background:new 0 0 288 288" xml:space="preserve" version="1.1" xmlns:xlink="http://www.w3.org/1999/xlink">
<style>.calliablue{fill:#0a9ea5}</style>
<path class="calliablue" d="M98.35 133.74v21.1h7v-14.1h161.8v62.8h-161.8v-14.2h-7v21.2h175.8v-76.8z"/>
<path class="calliablue" d="M35.35 166.64c-1.3-1.7-3.9-2.7-6.2-2.7-4.9 0-7.9 3.5-7.9 8.3 0 5.1 3.3 8.2 7.9 8.2 2.8 0 5.5-1.4 6.7-3.4l7.1 1.8c-2.4 5.2-7.7 8.6-13.9 8.6-8.4 0-15.2-6.4-15.2-15.3s6.8-15.3 15.2-15.3c5.8 0 10.7 3.1 13.3 7.8l-7 2zm39.9 15.6h-11.7l-1.7 4.6h-7.6l11.8-29.4h6.7l11.8 29.4h-7.6l-1.7-4.6zm-2.3-6.2-2.1-5.7c-.6-1.7-1.4-4.3-1.4-4.3s-.8 2.6-1.4 4.3l-2.1 5.7h7zm70.5 4.2v6.6h-20.9v-29.4h7.1v22.8h13.8zm35.2 0v6.6h-20.9v-29.4h7.1v22.8h13.8zm14.3 6.6v-29.4h7.1v29.4h-7.1zm41.7-4.6h-11.6l-1.7 4.6h-7.6l11.8-29.4h6.7l11.8 29.4h-7.6l-1.8-4.6zm-2.3-6.2-2.1-5.7c-.6-1.7-1.4-4.3-1.4-4.3s-.8 2.6-1.4 4.3l-2.1 5.7h7zm-136.5-8.7c1.4 11.9 10.6 9.7 10.6 9.7.1 0 1.4-9.4-10.6-9.7z"/>
</svg>
